<svg width="24" height="24" viewBox="0 0 24 24" fill="none" xmlns="http://www.w3.org/2000/svg">
<path d="M12.0216 0.0899658C5.40733 0.0899658 0.0438232 5.54392 0.0438232 12.2722C0.0438232 17.6548 3.47582 22.2213 8.23496 23.8322C8.83357 23.9449 9.05334 23.5679 9.05334 23.2461C9.05334 22.9556 9.04224 21.996 9.03708 20.978C5.70485 21.7149 5.00171 19.5406 5.00171 19.5406C4.45685 18.1325 3.67179 17.7581 3.67179 17.7581C2.58505 17.002 3.75371 17.0175 3.75371 17.0175C4.95648 17.1032 5.58981 18.2729 5.58981 18.2729C6.6581 20.1353 8.39186 19.5969 9.07536 19.2856C9.18286 18.4984 9.49328 17.9606 9.83582 17.6566C7.17539 17.3485 4.3787 16.304 4.3787 11.636C4.3787 10.3059 4.8466 9.21916 5.61281 8.36601C5.48845 8.05897 5.07847 6.82011 5.72885 5.14206C5.72885 5.14206 6.73467 4.81464 9.02359 6.39081C9.97903 6.12089 11.0037 5.98552 12.0216 5.98088C13.0395 5.98552 14.065 6.12089 15.0222 6.39081C17.3084 4.81464 18.3128 5.14206 18.3128 5.14206C18.9647 6.82011 18.5546 8.05897 18.4302 8.36601C19.1982 9.21916 19.6629 10.3059 19.6629 11.636C19.6629 16.315 16.8609 17.3453 14.1937 17.6469C14.6233 18.025 15.0061 18.7663 15.0061 19.9029C15.0061 21.5328 14.9923 22.8447 14.9923 23.2461C14.9923 23.5703 15.2079 23.9502 15.815 23.8305C20.5716 22.2179 23.9992 17.653 23.9992 12.2722C23.9992 5.54392 18.6365 0.0899658 12.0216 0.0899658" fill="#CCDDFF"/>
<path d="M4.58042 17.5812C4.55404 17.6419 4.46042 17.6598 4.37513 17.6183C4.28826 17.5785 4.23947 17.496 4.26763 17.4353C4.29342 17.373 4.38723 17.3558 4.47391 17.3972C4.56099 17.4371 4.61057 17.5204 4.58042 17.5812" fill="#CCDDFF"/>
<path d="M5.06552 18.1315C5.0084 18.1854 4.89673 18.1603 4.82096 18.0752C4.74261 17.9903 4.72794 17.8767 4.78585 17.822C4.84476 17.7682 4.95306 17.7934 5.03161 17.8783C5.10995 17.9643 5.12523 18.077 5.06552 18.1315" fill="#CCDDFF"/>
<path d="M5.53787 18.8331C5.46448 18.8849 5.34448 18.8363 5.2703 18.728C5.19691 18.6197 5.19691 18.4897 5.27189 18.4377C5.34627 18.3856 5.46448 18.4324 5.53965 18.54C5.61284 18.6499 5.61284 18.78 5.53787 18.8331" fill="#CCDDFF"/>
<path d="M6.18488 19.511C6.11923 19.5846 5.97939 19.5648 5.87705 19.4644C5.77232 19.3661 5.74316 19.2267 5.80901 19.1531C5.87546 19.0792 6.01609 19.1 6.11923 19.1997C6.22316 19.2977 6.2549 19.4381 6.18488 19.511" fill="#CCDDFF"/>
<path d="M7.07744 19.9045C7.04849 19.9999 6.91381 20.0433 6.77814 20.0028C6.64267 19.961 6.55401 19.8492 6.58138 19.7528C6.60954 19.6568 6.74482 19.6116 6.88148 19.655C7.01675 19.6965 7.10561 19.8075 7.07744 19.9045" fill="#CCDDFF"/>
<path d="M8.05768 19.9776C8.06105 20.0781 7.94601 20.1614 7.8036 20.163C7.66039 20.1664 7.54456 20.0851 7.54297 19.9863C7.54297 19.8848 7.65543 19.8023 7.79864 19.7999C7.94105 19.7971 8.05768 19.8777 8.05768 19.9776" fill="#CCDDFF"/>
<path d="M8.96979 19.8196C8.98685 19.9176 8.88788 20.0183 8.74645 20.0449C8.60741 20.071 8.47868 20.0104 8.46103 19.9132C8.44378 19.8127 8.54454 19.7121 8.68338 19.686C8.825 19.661 8.95174 19.7199 8.96979 19.8196" fill="#CCDDFF"/>
</svg>
